<svg width="24" height="13" viewBox="0 0 24 13" fill="none" xmlns="http://www.w3.org/2000/svg">
<path d="M17.1562 2.90625C16.9688 2.15625 16.375 1.5625 15.6562 1.375C14.3125 1 9 1 9 1C9 1 3.65625 1 2.3125 1.375C1.59375 1.5625 1 2.15625 0.8125 2.90625C0.4375 4.21875 0.4375 7.03125 0.4375 7.03125C0.4375 7.03125 0.4375 9.8125 0.8125 11.1562C1 11.9062 1.59375 12.4688 2.3125 12.6562C3.65625 13 9 13 9 13C9 13 14.3125 13 15.6562 12.6562C16.375 12.4688 16.9688 11.9062 17.1562 11.1562C17.5312 9.8125 17.5312 7.03125 17.5312 7.03125C17.5312 7.03125 17.5312 4.21875 17.1562 2.90625ZM7.25 9.5625V4.5L11.6875 7.03125L7.25 9.5625ZM23.2812 3.1875H20.9688V0.6875L19.6875 1.125V3.1875H18.125V4.21875H19.6875V8.8125C19.6875 10.4688 20.5938 11.375 22.125 11.375C22.5312 11.375 22.9062 11.3125 23.25 11.1875V10.0938C22.9688 10.1875 22.6875 10.25 22.375 10.25C21.5 10.25 20.9688 9.8125 20.9688 8.625V4.21875H23.2812V3.1875Z" fill="#707070"/>
</svg>
